<svg width="162" height="26" viewBox="0 0 162 26" fill="none" xmlns="http://www.w3.org/2000/svg">
<path d="M13.2306 0.366394L23.8884 6.51966V18.8262L13.2306 24.9795L2.57281 18.8262V6.51966L13.2306 0.366394Z" fill="#065E7C"/>
<path d="M38.4868 20.3664H35.4901V8.19361C35.4901 7.34627 35.6555 6.63326 35.9861 6.05459C36.3237 5.46902 36.7956 5.02813 37.4018 4.73191C38.0149 4.42879 38.7417 4.27723 39.5822 4.27723C39.8577 4.27723 40.123 4.2979 40.3779 4.33924C40.6328 4.37368 40.8808 4.41846 41.1219 4.47357L41.0909 6.71593C40.96 6.68148 40.8222 6.65737 40.6775 6.64359C40.5329 6.62981 40.3641 6.62292 40.1712 6.62292C39.813 6.62292 39.5064 6.68493 39.2515 6.80893C39.0035 6.92604 38.8141 7.10171 38.6832 7.33593C38.5523 7.57016 38.4868 7.85605 38.4868 8.19361V20.3664ZM40.7189 9.18562V11.2936H33.8265V9.18562H40.7189ZM41.8039 14.8897V14.6727C41.8039 13.8529 41.921 13.0985 42.1552 12.4096C42.3894 11.7139 42.7304 11.1111 43.1782 10.6013C43.626 10.0915 44.1771 9.6954 44.8316 9.41295C45.486 9.12362 46.2369 8.97895 47.0843 8.97895C47.9316 8.97895 48.6859 9.12362 49.3473 9.41295C50.0086 9.6954 50.5632 10.0915 51.011 10.6013C51.4656 11.1111 51.8101 11.7139 52.0443 12.4096C52.2785 13.0985 52.3956 13.8529 52.3956 14.6727V14.8897C52.3956 15.7026 52.2785 16.4569 52.0443 17.1527C51.8101 17.8416 51.4656 18.4444 51.011 18.961C50.5632 19.4708 50.0121 19.8669 49.3576 20.1494C48.7032 20.4318 47.9523 20.5731 47.1049 20.5731C46.2576 20.5731 45.5032 20.4318 44.8419 20.1494C44.1875 19.8669 43.6329 19.4708 43.1782 18.961C42.7304 18.4444 42.3894 17.8416 42.1552 17.1527C41.921 16.4569 41.8039 15.7026 41.8039 14.8897ZM44.7799 14.6727V14.8897C44.7799 15.3581 44.8212 15.7956 44.9039 16.202C44.9866 16.6085 45.1175 16.9667 45.2966 17.2767C45.4826 17.5798 45.7237 17.8175 46.0199 17.9897C46.3161 18.1619 46.6778 18.248 47.1049 18.248C47.5183 18.248 47.873 18.1619 48.1693 17.9897C48.4655 17.8175 48.7032 17.5798 48.8823 17.2767C49.0614 16.9667 49.1923 16.6085 49.2749 16.202C49.3645 15.7956 49.4093 15.3581 49.4093 14.8897V14.6727C49.4093 14.218 49.3645 13.7909 49.2749 13.3913C49.1923 12.9849 49.0579 12.6267 48.8719 12.3166C48.6928 11.9998 48.4552 11.7518 48.1589 11.5726C47.8627 11.3935 47.5045 11.304 47.0843 11.304C46.664 11.304 46.3058 11.3935 46.0096 11.5726C45.7202 11.7518 45.4826 11.9998 45.2966 12.3166C45.1175 12.6267 44.9866 12.9849 44.9039 13.3913C44.8212 13.7909 44.7799 14.218 44.7799 14.6727ZM53.7493 14.8897V14.6727C53.7493 13.8529 53.8664 13.0985 54.1007 12.4096C54.3349 11.7139 54.6759 11.1111 55.1237 10.6013C55.5715 10.0915 56.1226 9.6954 56.777 9.41295C57.4315 9.12362 58.1824 8.97895 59.0297 8.97895C59.8771 8.97895 60.6314 9.12362 61.2927 9.41295C61.9541 9.6954 62.5086 10.0915 62.9564 10.6013C63.4111 11.1111 63.7555 11.7139 63.9898 12.4096C64.224 13.0985 64.3411 13.8529 64.3411 14.6727V14.8897C64.3411 15.7026 64.224 16.4569 63.9898 17.1527C63.7555 17.8416 63.4111 18.4444 62.9564 18.961C62.5086 19.4708 61.9575 19.8669 61.3031 20.1494C60.6486 20.4318 59.8977 20.5731 59.0504 20.5731C58.203 20.5731 57.4487 20.4318 56.7874 20.1494C56.1329 19.8669 55.5783 19.4708 55.1237 18.961C54.6759 18.4444 54.3349 17.8416 54.1007 17.1527C53.8664 16.4569 53.7493 15.7026 53.7493 14.8897ZM56.7254 14.6727V14.8897C56.7254 15.3581 56.7667 15.7956 56.8494 16.202C56.932 16.6085 57.0629 16.9667 57.242 17.2767C57.428 17.5798 57.6691 17.8175 57.9654 17.9897C58.2616 18.1619 58.6233 18.248 59.0504 18.248C59.4637 18.248 59.8185 18.1619 60.1147 17.9897C60.4109 17.8175 60.6486 17.5798 60.8277 17.2767C61.0068 16.9667 61.1377 16.6085 61.2204 16.202C61.31 15.7956 61.3547 15.3581 61.3547 14.8897V14.6727C61.3547 14.218 61.31 13.7909 61.2204 13.3913C61.1377 12.9849 61.0034 12.6267 60.8174 12.3166C60.6383 11.9998 60.4006 11.7518 60.1044 11.5726C59.8082 11.3935 59.4499 11.304 59.0297 11.304C58.6095 11.304 58.2513 11.3935 57.955 11.5726C57.6657 11.7518 57.428 11.9998 57.242 12.3166C57.0629 12.6267 56.932 12.9849 56.8494 13.3913C56.7667 13.7909 56.7254 14.218 56.7254 14.6727ZM72.7732 17.9277V4.49424H75.7699V20.3664H73.0728L72.7732 17.9277ZM65.7051 14.9103V14.6933C65.7051 13.8391 65.8016 13.0641 65.9944 12.3683C66.1873 11.6656 66.4698 11.0629 66.8418 10.56C67.2138 10.0571 67.6719 9.66784 68.2161 9.39229C68.7604 9.11673 69.3804 8.97895 70.0762 8.97895C70.7306 8.97895 71.3024 9.11673 71.7915 9.39229C72.2875 9.66784 72.7077 10.0605 73.0522 10.5703C73.4035 11.0732 73.686 11.6691 73.8995 12.358C74.1131 13.04 74.2681 13.7874 74.3645 14.6003V15.0757C74.2681 15.8541 74.1131 16.5775 73.8995 17.2457C73.686 17.9139 73.4035 18.4995 73.0522 19.0024C72.7077 19.4984 72.2875 19.8842 71.7915 20.1597C71.2955 20.4353 70.7168 20.5731 70.0555 20.5731C69.3597 20.5731 68.7397 20.4318 68.1955 20.1494C67.6581 19.8669 67.2035 19.4708 66.8315 18.961C66.4663 18.4513 66.1873 17.8519 65.9944 17.163C65.8016 16.4741 65.7051 15.7232 65.7051 14.9103ZM68.6811 14.6933V14.9103C68.6811 15.3719 68.7156 15.8025 68.7845 16.202C68.8603 16.6016 68.9808 16.9564 69.1461 17.2664C69.3184 17.5695 69.5388 17.8071 69.8075 17.9794C70.083 18.1447 70.4172 18.2274 70.8098 18.2274C71.3196 18.2274 71.7398 18.1137 72.0705 17.8864C72.4012 17.6521 72.6526 17.3318 72.8248 16.9254C73.004 16.5189 73.1073 16.0505 73.1349 15.52V14.1663C73.1142 13.7323 73.0522 13.3431 72.9488 12.9987C72.8524 12.6473 72.7077 12.3476 72.5148 12.0996C72.3288 11.8516 72.0946 11.6588 71.8122 11.521C71.5366 11.3832 71.2094 11.3143 70.8305 11.3143C70.4447 11.3143 70.114 11.4039 69.8385 11.583C69.5629 11.7552 69.339 11.9929 69.1668 12.296C69.0015 12.5991 68.8775 12.9573 68.7948 13.3707C68.719 13.7771 68.6811 14.218 68.6811 14.6933ZM88.511 20.5731C87.643 20.5731 86.8645 20.4353 86.1756 20.1597C85.4868 19.8773 84.9012 19.4881 84.419 18.992C83.9436 18.496 83.5785 17.9208 83.3236 17.2664C83.0687 16.605 82.9413 15.9023 82.9413 15.1583V14.745C82.9413 13.8977 83.0618 13.1227 83.303 12.42C83.5441 11.7173 83.8885 11.1076 84.3363 10.591C84.791 10.0743 85.3421 9.67818 85.9896 9.40262C86.6372 9.12017 87.3674 8.97895 88.1803 8.97895C88.9726 8.97895 89.6752 9.10984 90.2884 9.37162C90.9015 9.6334 91.4147 10.0054 91.828 10.4876C92.2483 10.9699 92.5652 11.5485 92.7787 12.2236C92.9923 12.8919 93.099 13.6359 93.099 14.4557V15.6957H84.2123V13.7117H90.1747V13.4843C90.1747 13.071 90.0989 12.7024 89.9474 12.3786C89.8027 12.048 89.5822 11.7862 89.286 11.5933C88.9898 11.4004 88.6109 11.304 88.1493 11.304C87.7567 11.304 87.4191 11.3901 87.1367 11.5623C86.8542 11.7345 86.6234 11.9756 86.4443 12.2856C86.2721 12.5957 86.1412 12.9608 86.0516 13.381C85.969 13.7943 85.9276 14.249 85.9276 14.745V15.1583C85.9276 15.6061 85.9896 16.0195 86.1136 16.3984C86.2445 16.7772 86.4271 17.1045 86.6613 17.38C86.9024 17.6556 87.1918 17.8691 87.5293 18.0207C87.8738 18.1723 88.263 18.248 88.697 18.248C89.2343 18.248 89.7338 18.1447 90.1954 17.938C90.6638 17.7245 91.0668 17.4041 91.4044 16.977L92.851 18.5477C92.6168 18.8853 92.2965 19.209 91.89 19.5191C91.4905 19.8291 91.0082 20.0839 90.4434 20.2837C89.8785 20.4766 89.2343 20.5731 88.511 20.5731ZM97.1911 9.18562L99.0408 12.5853L100.942 9.18562H104.114L100.952 14.652L104.259 20.3664H101.076L99.0614 16.7704L97.0464 20.3664H93.8637L97.1704 14.652L94.0084 9.18562H97.1911ZM108.537 11.335V24.6651H105.561V9.18562H108.32L108.537 11.335ZM115.616 14.652V14.869C115.616 15.6819 115.519 16.4362 115.326 17.132C115.14 17.8278 114.865 18.434 114.5 18.9507C114.134 19.4605 113.68 19.8601 113.136 20.1494C112.598 20.4318 111.978 20.5731 111.276 20.5731C110.594 20.5731 110.001 20.4353 109.498 20.1597C108.995 19.8842 108.572 19.4984 108.227 19.0024C107.89 18.4995 107.618 17.9174 107.411 17.256C107.204 16.5947 107.046 15.8851 106.936 15.1273V14.559C107.046 13.7461 107.204 13.0021 107.411 12.327C107.618 11.645 107.89 11.056 108.227 10.56C108.572 10.0571 108.992 9.66784 109.488 9.39229C109.991 9.11673 110.58 8.97895 111.255 8.97895C111.964 8.97895 112.588 9.11328 113.125 9.38195C113.669 9.65062 114.124 10.0364 114.489 10.5393C114.861 11.0422 115.14 11.6415 115.326 12.3373C115.519 13.0331 115.616 13.8047 115.616 14.652ZM112.629 14.869V14.652C112.629 14.1767 112.588 13.7392 112.505 13.3397C112.429 12.9332 112.305 12.5784 112.133 12.2753C111.968 11.9722 111.747 11.738 111.472 11.5726C111.203 11.4004 110.876 11.3143 110.49 11.3143C110.084 11.3143 109.736 11.3797 109.447 11.5106C109.164 11.6415 108.933 11.831 108.754 12.079C108.575 12.327 108.441 12.6232 108.351 12.9677C108.262 13.3121 108.207 13.7013 108.186 14.1353V15.5717C108.22 16.0815 108.317 16.5396 108.475 16.946C108.634 17.3456 108.878 17.6625 109.209 17.8967C109.54 18.1309 109.974 18.248 110.511 18.248C110.904 18.248 111.234 18.1619 111.503 17.9897C111.772 17.8106 111.989 17.566 112.154 17.256C112.326 16.946 112.447 16.5878 112.516 16.1814C112.591 15.7749 112.629 15.3375 112.629 14.869ZM120.607 4.49424V20.3664H117.62V4.49424H120.607ZM122.591 14.8897V14.6727C122.591 13.8529 122.708 13.0985 122.942 12.4096C123.176 11.7139 123.517 11.1111 123.965 10.6013C124.413 10.0915 124.964 9.6954 125.618 9.41295C126.273 9.12362 127.024 8.97895 127.871 8.97895C128.718 8.97895 129.473 9.12362 130.134 9.41295C130.795 9.6954 131.35 10.0915 131.798 10.6013C132.252 11.1111 132.597 11.7139 132.831 12.4096C133.065 13.0985 133.182 13.8529 133.182 14.6727V14.8897C133.182 15.7026 133.065 16.4569 132.831 17.1527C132.597 17.8416 132.252 18.4444 131.798 18.961C131.35 19.4708 130.799 19.8669 130.144 20.1494C129.49 20.4318 128.739 20.5731 127.892 20.5731C127.044 20.5731 126.29 20.4318 125.629 20.1494C124.974 19.8669 124.42 19.4708 123.965 18.961C123.517 18.4444 123.176 17.8416 122.942 17.1527C122.708 16.4569 122.591 15.7026 122.591 14.8897ZM125.567 14.6727V14.8897C125.567 15.3581 125.608 15.7956 125.691 16.202C125.773 16.6085 125.904 16.9667 126.083 17.2767C126.269 17.5798 126.51 17.8175 126.807 17.9897C127.103 18.1619 127.465 18.248 127.892 18.248C128.305 18.248 128.66 18.1619 128.956 17.9897C129.252 17.8175 129.49 17.5798 129.669 17.2767C129.848 16.9667 129.979 16.6085 130.062 16.202C130.151 15.7956 130.196 15.3581 130.196 14.8897V14.6727C130.196 14.218 130.151 13.7909 130.062 13.3913C129.979 12.9849 129.845 12.6267 129.659 12.3166C129.48 11.9998 129.242 11.7518 128.946 11.5726C128.65 11.3935 128.291 11.304 127.871 11.304C127.451 11.304 127.093 11.3935 126.796 11.5726C126.507 11.7518 126.269 11.9998 126.083 12.3166C125.904 12.6267 125.773 12.9849 125.691 13.3913C125.608 13.7909 125.567 14.218 125.567 14.6727ZM137.987 11.6243V20.3664H135.011V9.18562H137.812L137.987 11.6243ZM141.356 9.11328L141.305 11.8723C141.16 11.8516 140.984 11.8344 140.778 11.8206C140.578 11.8 140.395 11.7896 140.23 11.7896C139.81 11.7896 139.445 11.8448 139.135 11.955C138.831 12.0583 138.576 12.2133 138.37 12.42C138.17 12.6267 138.018 12.8781 137.915 13.1743C137.819 13.4705 137.764 13.8081 137.75 14.187L137.15 14.001C137.15 13.2777 137.223 12.6129 137.367 12.0066C137.512 11.3935 137.722 10.8596 137.998 10.405C138.28 9.95029 138.625 9.59895 139.031 9.35095C139.438 9.10295 139.903 8.97895 140.426 8.97895C140.592 8.97895 140.76 8.99273 140.933 9.02028C141.105 9.04095 141.246 9.07195 141.356 9.11328ZM147.701 20.5731C146.833 20.5731 146.054 20.4353 145.366 20.1597C144.677 19.8773 144.091 19.4881 143.609 18.992C143.134 18.496 142.768 17.9208 142.514 17.2664C142.259 16.605 142.131 15.9023 142.131 15.1583V14.745C142.131 13.8977 142.252 13.1227 142.493 12.42C142.734 11.7173 143.078 11.1076 143.526 10.591C143.981 10.0743 144.532 9.67818 145.18 9.40262C145.827 9.12017 146.557 8.97895 147.37 8.97895C148.162 8.97895 148.865 9.10984 149.478 9.37162C150.091 9.6334 150.605 10.0054 151.018 10.4876C151.438 10.9699 151.755 11.5485 151.969 12.2236C152.182 12.8919 152.289 13.6359 152.289 14.4557V15.6957H143.402V13.7117H149.365V13.4843C149.365 13.071 149.289 12.7024 149.137 12.3786C148.993 12.048 148.772 11.7862 148.476 11.5933C148.18 11.4004 147.801 11.304 147.339 11.304C146.947 11.304 146.609 11.3901 146.327 11.5623C146.044 11.7345 145.813 11.9756 145.634 12.2856C145.462 12.5957 145.331 12.9608 145.242 13.381C145.159 13.7943 145.118 14.249 145.118 14.745V15.1583C145.118 15.6061 145.18 16.0195 145.304 16.3984C145.434 16.7772 145.617 17.1045 145.851 17.38C146.092 17.6556 146.382 17.8691 146.719 18.0207C147.064 18.1723 147.453 18.248 147.887 18.248C148.424 18.248 148.924 18.1447 149.385 17.938C149.854 17.7245 150.257 17.4041 150.594 16.977L152.041 18.5477C151.807 18.8853 151.486 19.209 151.08 19.5191C150.68 19.8291 150.198 20.0839 149.633 20.2837C149.068 20.4766 148.424 20.5731 147.701 20.5731ZM156.96 11.6243V20.3664H153.984V9.18562H156.784L156.96 11.6243ZM160.328 9.11328L160.277 11.8723C160.132 11.8516 159.956 11.8344 159.75 11.8206C159.55 11.8 159.367 11.7896 159.202 11.7896C158.782 11.7896 158.417 11.8448 158.107 11.955C157.804 12.0583 157.549 12.2133 157.342 12.42C157.142 12.6267 156.991 12.8781 156.887 13.1743C156.791 13.4705 156.736 13.8081 156.722 14.187L156.123 14.001C156.123 13.2777 156.195 12.6129 156.34 12.0066C156.484 11.3935 156.694 10.8596 156.97 10.405C157.252 9.95029 157.597 9.59895 158.003 9.35095C158.41 9.10295 158.875 8.97895 159.398 8.97895C159.564 8.97895 159.732 8.99273 159.905 9.02028C160.077 9.04095 160.218 9.07195 160.328 9.11328Z" fill="white"/>
</svg>
